<?xml version="1.0" encoding="UTF-8" standalone="no"?>
<!DOCTYPE svg PUBLIC "-//W3C//DTD SVG 1.1//EN"
 "http://www.w3.org/Graphics/SVG/1.1/DTD/svg11.dtd">
<!-- Generated by graphviz version 15.0.0 (20260523.1842)
 -->
<!-- Title: tcp&#45;rfc793 Pages: 1 -->
<svg width="1411pt" height="458pt"
 viewBox="0.00 0.00 1411.00 458.00" xmlns="http://www.w3.org/2000/svg" xmlns:xlink="http://www.w3.org/1999/xlink">
<g id="graph0" class="graph" transform="scale(1 1) rotate(0) translate(4 454.25)">
<title>tcp&#45;rfc793</title>
<polygon fill="white" stroke="none" points="-4,4 -4,-454.25 1406.55,-454.25 1406.55,4 -4,4"/>
<!-- __start -->
<g id="node1" class="node">
<title>__start</title>
<ellipse fill="black" stroke="black" cx="1.8" cy="-165" rx="1.8" ry="1.8"/>
</g>
<!-- CLOSED -->
<g id="node2" class="node">
<title>CLOSED</title>
<ellipse fill="none" stroke="black" cx="87.56" cy="-165" rx="46.96" ry="46.96"/>
<text xml:space="preserve" text-anchor="middle" x="87.56" y="-159.2" font-family="Helvetica,sans-Serif" font-size="14.00">CLOSED</text>
</g>
<!-- __start&#45;&gt;CLOSED -->
<g id="edge1" class="edge">
<title>__start&#45;&gt;CLOSED</title>
<path fill="none" stroke="black" d="M3.98,-165C7.3,-165 17.23,-165 29.11,-165"/>
<polygon fill="black" stroke="black" points="28.92,-168.5 38.92,-165 28.92,-161.5 28.92,-168.5"/>
</g>
<!-- LISTEN -->
<g id="node3" class="node">
<title>LISTEN</title>
<ellipse fill="none" stroke="black" cx="323.97" cy="-125" rx="41.11" ry="41.11"/>
<text xml:space="preserve" text-anchor="middle" x="323.97" y="-119.2" font-family="Helvetica,sans-Serif" font-size="14.00">LISTEN</text>
</g>
<!-- CLOSED&#45;&gt;LISTEN -->
<g id="edge3" class="edge">
<title>CLOSED&#45;&gt;LISTEN</title>
<path fill="none" stroke="black" d="M118.43,-129.29C128.24,-120.09 139.89,-111.4 152.52,-106.5 191.58,-91.33 239.22,-98.44 274.2,-107.91"/>
<polygon fill="black" stroke="black" points="273.05,-111.22 283.63,-110.62 274.98,-104.49 273.05,-111.22"/>
<text xml:space="preserve" text-anchor="middle" x="200.89" y="-109.7" font-family="Times,serif" font-size="14.00">PASSIVE_OPEN</text>
</g>
<!-- SYN_SENT -->
<g id="node4" class="node">
<title>SYN_SENT</title>
<ellipse fill="none" stroke="black" cx="323.97" cy="-241" rx="56.71" ry="56.71"/>
<text xml:space="preserve" text-anchor="middle" x="323.97" y="-235.2" font-family="Helvetica,sans-Serif" font-size="14.00">SYN_SENT</text>
</g>
<!-- CLOSED&#45;&gt;SYN_SENT -->
<g id="edge2" class="edge">
<title>CLOSED&#45;&gt;SYN_SENT</title>
<path fill="none" stroke="black" d="M127.13,-190.55C135.28,-195.19 143.99,-199.62 152.52,-203 162.47,-206.95 213.3,-218.1 256.89,-227.31"/>
<polygon fill="black" stroke="black" points="256.09,-230.72 266.6,-229.35 257.53,-223.87 256.09,-230.72"/>
<text xml:space="preserve" text-anchor="middle" x="200.89" y="-227.88" font-family="Times,serif" font-size="14.00">ACTIVE_OPEN</text>
</g>
<!-- LISTEN&#45;&gt;CLOSED -->
<g id="edge5" class="edge">
<title>LISTEN&#45;&gt;CLOSED</title>
<path fill="none" stroke="black" d="M282.73,-128.29C248.01,-131.55 196.63,-137.4 152.52,-146.5 149.59,-147.1 146.61,-147.77 143.6,-148.49"/>
<polygon fill="black" stroke="black" points="143.02,-145.03 134.19,-150.88 144.74,-151.81 143.02,-145.03"/>
<text xml:space="preserve" text-anchor="middle" x="200.89" y="-149.7" font-family="Times,serif" font-size="14.00">CLOSE</text>
</g>
<!-- SYN_RECEIVED -->
<g id="node5" class="node">
<title>SYN_RECEIVED</title>
<ellipse fill="none" stroke="black" cx="521.84" cy="-162" rx="78.16" ry="78.16"/>
<text xml:space="preserve" text-anchor="middle" x="521.84" y="-156.2" font-family="Helvetica,sans-Serif" font-size="14.00">SYN_RECEIVED</text>
</g>
<!-- LISTEN&#45;&gt;SYN_RECEIVED -->
<g id="edge4" class="edge">
<title>LISTEN&#45;&gt;SYN_RECEIVED</title>
<path fill="none" stroke="black" d="M365,-121.3C383.6,-120.47 405.93,-120.75 425.68,-124.5 430.02,-125.32 434.42,-126.34 438.82,-127.51"/>
<polygon fill="black" stroke="black" points="437.7,-130.83 448.28,-130.27 439.66,-124.11 437.7,-130.83"/>
<text xml:space="preserve" text-anchor="middle" x="412.18" y="-127.7" font-family="Times,serif" font-size="14.00">SYN</text>
</g>
<!-- SYN_SENT&#45;&gt;CLOSED -->
<g id="edge6" class="edge">
<title>SYN_SENT&#45;&gt;CLOSED</title>
<path fill="none" stroke="black" d="M282.33,-202.2C272.21,-194.48 260.9,-187.28 249.27,-182.5 216.78,-169.16 177.66,-164.68 146.14,-163.58"/>
<polygon fill="black" stroke="black" points="146.5,-160.09 136.42,-163.36 146.33,-167.09 146.5,-160.09"/>
<text xml:space="preserve" text-anchor="middle" x="200.89" y="-185.7" font-family="Times,serif" font-size="14.00">CLOSE</text>
</g>
<!-- SYN_SENT&#45;&gt;CLOSED -->
<g id="edge9" class="edge">
<title>SYN_SENT&#45;&gt;CLOSED</title>
<path fill="none" stroke="black" d="M268.16,-253.49C233.39,-258.62 188.36,-259.96 152.52,-243 139.15,-236.67 127.64,-226.03 118.21,-214.61"/>
<polygon fill="black" stroke="black" points="121.21,-212.77 112.34,-206.98 115.67,-217.04 121.21,-212.77"/>
<text xml:space="preserve" text-anchor="middle" x="200.89" y="-260.1" font-family="Times,serif" font-size="14.00">RST</text>
</g>
<!-- SYN_SENT&#45;&gt;SYN_RECEIVED -->
<g id="edge8" class="edge">
<title>SYN_SENT&#45;&gt;SYN_RECEIVED</title>
<path fill="none" stroke="black" d="M376.95,-220.04C395.85,-212.41 417.71,-203.59 438.6,-195.17"/>
<polygon fill="black" stroke="black" points="439.71,-198.5 447.68,-191.51 437.09,-192 439.71,-198.5"/>
<text xml:space="preserve" text-anchor="middle" x="412.18" y="-214.1" font-family="Times,serif" font-size="14.00">SYN</text>
</g>
<!-- ESTABLISHED -->
<g id="node6" class="node">
<title>ESTABLISHED</title>
<ellipse fill="none" stroke="black" cx="735.34" cy="-227" rx="70.84" ry="70.84"/>
<text xml:space="preserve" text-anchor="middle" x="735.34" y="-221.2" font-family="Helvetica,sans-Serif" font-size="14.00">ESTABLISHED</text>
</g>
<!-- SYN_SENT&#45;&gt;ESTABLISHED -->
<g id="edge7" class="edge">
<title>SYN_SENT&#45;&gt;ESTABLISHED</title>
<path fill="none" stroke="black" d="M380.79,-245.54C400.63,-246.95 423.14,-248.31 443.68,-249 513.11,-251.34 530.75,-254.63 599.99,-249 617.66,-247.56 636.51,-245.08 654.33,-242.29"/>
<polygon fill="black" stroke="black" points="654.76,-245.76 664.07,-240.71 653.64,-238.85 654.76,-245.76"/>
<text xml:space="preserve" text-anchor="middle" x="521.84" y="-255.31" font-family="Times,serif" font-size="14.00">SYN_ACK</text>
</g>
<!-- SYN_RECEIVED&#45;&gt;LISTEN -->
<g id="edge11" class="edge">
<title>SYN_RECEIVED&#45;&gt;LISTEN</title>
<path fill="none" stroke="black" d="M444.5,-149.4C429.3,-146.75 413.47,-143.87 398.68,-141 391.17,-139.54 383.24,-137.91 375.49,-136.27"/>
<polygon fill="black" stroke="black" points="376.3,-132.86 365.79,-134.19 374.83,-139.71 376.3,-132.86"/>
<text xml:space="preserve" text-anchor="middle" x="412.18" y="-149.2" font-family="Times,serif" font-size="14.00">RST</text>
</g>
<!-- SYN_RECEIVED&#45;&gt;ESTABLISHED -->
<g id="edge10" class="edge">
<title>SYN_RECEIVED&#45;&gt;ESTABLISHED</title>
<path fill="none" stroke="black" d="M597.11,-184.83C616.3,-190.72 637.01,-197.09 656.39,-203.04"/>
<polygon fill="black" stroke="black" points="655.27,-206.36 665.86,-205.96 657.33,-199.67 655.27,-206.36"/>
<text xml:space="preserve" text-anchor="middle" x="632.24" y="-201.59" font-family="Times,serif" font-size="14.00">ACK</text>
</g>
<!-- FIN_WAIT_1 -->
<g id="node7" class="node">
<title>FIN_WAIT_1</title>
<ellipse fill="none" stroke="black" cx="952.36" cy="-131" rx="61.09" ry="61.09"/>
<text xml:space="preserve" text-anchor="middle" x="952.36" y="-125.2" font-family="Helvetica,sans-Serif" font-size="14.00">FIN_WAIT_1</text>
</g>
<!-- SYN_RECEIVED&#45;&gt;FIN_WAIT_1 -->
<g id="edge12" class="edge">
<title>SYN_RECEIVED&#45;&gt;FIN_WAIT_1</title>
<path fill="none" stroke="black" d="M597.68,-142.15C619.1,-137.35 642.58,-132.91 664.49,-130.5 737.48,-122.48 821.53,-123.87 879.71,-126.48"/>
<polygon fill="black" stroke="black" points="879.32,-129.97 889.48,-126.95 879.65,-122.97 879.32,-129.97"/>
<text xml:space="preserve" text-anchor="middle" x="735.34" y="-133.7" font-family="Times,serif" font-size="14.00">CLOSE</text>
</g>
<!-- ESTABLISHED&#45;&gt;CLOSED -->
<g id="edge14" class="edge">
<title>ESTABLISHED&#45;&gt;CLOSED</title>
<path fill="none" stroke="black" d="M686.35,-175.33C678.97,-167.23 671.49,-158.92 664.49,-151 635.16,-117.79 640.2,-93.61 599.99,-75 545.25,-49.66 259.12,-35.65 152.52,-94 141.49,-100.04 131.38,-108.72 122.62,-117.96"/>
<polygon fill="black" stroke="black" points="120.02,-115.62 115.97,-125.41 125.24,-120.28 120.02,-115.62"/>
<text xml:space="preserve" text-anchor="middle" x="412.18" y="-56.47" font-family="Times,serif" font-size="14.00">RST</text>
</g>
<!-- ESTABLISHED&#45;&gt;ESTABLISHED -->
<g id="edge15" class="edge">
<title>ESTABLISHED&#45;&gt;ESTABLISHED</title>
<path fill="none" stroke="black" d="M726.52,-297.74C727.87,-308.52 730.81,-315.84 735.34,-315.84 738.03,-315.84 740.15,-313.26 741.72,-308.91"/>
<polygon fill="black" stroke="black" points="745.12,-309.74 743.83,-299.22 738.28,-308.25 745.12,-309.74"/>
<text xml:space="preserve" text-anchor="middle" x="735.34" y="-319.04" font-family="Times,serif" font-size="14.00">SEND</text>
</g>
<!-- ESTABLISHED&#45;&gt;ESTABLISHED -->
<g id="edge16" class="edge">
<title>ESTABLISHED&#45;&gt;ESTABLISHED</title>
<path fill="none" stroke="black" d="M716.02,-295.59C716.36,-317 722.8,-333.84 735.34,-333.84 745.52,-333.84 751.68,-322.72 753.82,-307.07"/>
<polygon fill="black" stroke="black" points="757.31,-307.33 754.54,-297.1 750.33,-306.82 757.31,-307.33"/>
<text xml:space="preserve" text-anchor="middle" x="735.34" y="-337.04" font-family="Times,serif" font-size="14.00">DATA</text>
</g>
<!-- ESTABLISHED&#45;&gt;FIN_WAIT_1 -->
<g id="edge17" class="edge">
<title>ESTABLISHED&#45;&gt;FIN_WAIT_1</title>
<path fill="none" stroke="black" d="M800.56,-198.33C827.55,-186.28 858.92,-172.27 886.03,-160.17"/>
<polygon fill="black" stroke="black" points="887.11,-163.52 894.81,-156.25 884.26,-157.13 887.11,-163.52"/>
<text xml:space="preserve" text-anchor="middle" x="845.56" y="-190.8" font-family="Times,serif" font-size="14.00">CLOSE</text>
</g>
<!-- CLOSE_WAIT -->
<g id="node11" class="node">
<title>CLOSE_WAIT</title>
<ellipse fill="none" stroke="black" cx="952.36" cy="-289" rx="67.43" ry="67.43"/>
<text xml:space="preserve" text-anchor="middle" x="952.36" y="-283.2" font-family="Helvetica,sans-Serif" font-size="14.00">CLOSE_WAIT</text>
</g>
<!-- ESTABLISHED&#45;&gt;CLOSE_WAIT -->
<g id="edge13" class="edge">
<title>ESTABLISHED&#45;&gt;CLOSE_WAIT</title>
<path fill="none" stroke="black" d="M803.78,-246.45C826.75,-253.07 852.56,-260.51 876.1,-267.3"/>
<polygon fill="black" stroke="black" points="875.06,-270.64 885.64,-270.05 877,-263.92 875.06,-270.64"/>
<text xml:space="preserve" text-anchor="middle" x="845.56" y="-266.75" font-family="Times,serif" font-size="14.00">FIN</text>
</g>
<!-- FIN_WAIT_2 -->
<g id="node8" class="node">
<title>FIN_WAIT_2</title>
<ellipse fill="none" stroke="black" cx="1159.64" cy="-261" rx="61.09" ry="61.09"/>
<text xml:space="preserve" text-anchor="middle" x="1159.64" y="-255.2" font-family="Helvetica,sans-Serif" font-size="14.00">FIN_WAIT_2</text>
</g>
<!-- FIN_WAIT_1&#45;&gt;FIN_WAIT_2 -->
<g id="edge18" class="edge">
<title>FIN_WAIT_1&#45;&gt;FIN_WAIT_2</title>
<path fill="none" stroke="black" d="M1004.63,-163.47C1033.03,-181.45 1068.49,-203.91 1098.23,-222.74"/>
<polygon fill="black" stroke="black" points="1096.07,-225.52 1106.39,-227.91 1099.81,-219.6 1096.07,-225.52"/>
<text xml:space="preserve" text-anchor="middle" x="1059.17" y="-214.67" font-family="Times,serif" font-size="14.00">ACK</text>
</g>
<!-- CLOSING -->
<g id="node9" class="node">
<title>CLOSING</title>
<ellipse fill="none" stroke="black" cx="1159.64" cy="-131" rx="50.86" ry="50.86"/>
<text xml:space="preserve" text-anchor="middle" x="1159.64" y="-125.2" font-family="Helvetica,sans-Serif" font-size="14.00">CLOSING</text>
</g>
<!-- FIN_WAIT_1&#45;&gt;CLOSING -->
<g id="edge19" class="edge">
<title>FIN_WAIT_1&#45;&gt;CLOSING</title>
<path fill="none" stroke="black" d="M1013.84,-131C1040.11,-131 1070.84,-131 1097.22,-131"/>
<polygon fill="black" stroke="black" points="1097.1,-134.5 1107.1,-131 1097.1,-127.5 1097.1,-134.5"/>
<text xml:space="preserve" text-anchor="middle" x="1059.17" y="-134.2" font-family="Times,serif" font-size="14.00">FIN</text>
</g>
<!-- TIME_WAIT -->
<g id="node10" class="node">
<title>TIME_WAIT</title>
<ellipse fill="none" stroke="black" cx="1343.89" cy="-62" rx="58.66" ry="58.66"/>
<text xml:space="preserve" text-anchor="middle" x="1343.89" y="-56.2" font-family="Helvetica,sans-Serif" font-size="14.00">TIME_WAIT</text>
</g>
<!-- FIN_WAIT_1&#45;&gt;TIME_WAIT -->
<g id="edge20" class="edge">
<title>FIN_WAIT_1&#45;&gt;TIME_WAIT</title>
<path fill="none" stroke="black" d="M1003.32,-96.92C1030.25,-80.61 1064.8,-62.85 1098.54,-54.5 1156.64,-40.13 1224.87,-43.87 1274.45,-50.12"/>
<polygon fill="black" stroke="black" points="1273.81,-53.57 1284.18,-51.42 1274.73,-46.63 1273.81,-53.57"/>
<text xml:space="preserve" text-anchor="middle" x="1159.64" y="-57.7" font-family="Times,serif" font-size="14.00">FIN_ACK</text>
</g>
<!-- FIN_WAIT_2&#45;&gt;TIME_WAIT -->
<g id="edge21" class="edge">
<title>FIN_WAIT_2&#45;&gt;TIME_WAIT</title>
<path fill="none" stroke="black" d="M1201.54,-216.34C1229.57,-185.73 1266.83,-145.05 1296.06,-113.14"/>
<polygon fill="black" stroke="black" points="1298.49,-115.66 1302.67,-105.92 1293.33,-110.93 1298.49,-115.66"/>
<text xml:space="preserve" text-anchor="middle" x="1252.98" y="-176.61" font-family="Times,serif" font-size="14.00">FIN</text>
</g>
<!-- CLOSING&#45;&gt;TIME_WAIT -->
<g id="edge22" class="edge">
<title>CLOSING&#45;&gt;TIME_WAIT</title>
<path fill="none" stroke="black" d="M1207.57,-113.23C1229.07,-105.09 1254.89,-95.32 1278.19,-86.5"/>
<polygon fill="black" stroke="black" points="1279.16,-89.87 1287.27,-83.06 1276.68,-83.32 1279.16,-89.87"/>
<text xml:space="preserve" text-anchor="middle" x="1252.98" y="-103.83" font-family="Times,serif" font-size="14.00">ACK</text>
</g>
<!-- TIME_WAIT&#45;&gt;CLOSED -->
<g id="edge23" class="edge">
<title>TIME_WAIT&#45;&gt;CLOSED</title>
<path fill="none" stroke="black" d="M1291.82,-34.63C1256.12,-18.02 1206.76,0 1160.64,0 322.97,0 322.97,0 322.97,0 242.51,0 215,-10.31 152.52,-61 135.85,-74.52 122.36,-93.61 112.15,-111.76"/>
<polygon fill="black" stroke="black" points="109.17,-109.9 107.52,-120.37 115.34,-113.21 109.17,-109.9"/>
<text xml:space="preserve" text-anchor="middle" x="735.34" y="-3.2" font-family="Times,serif" font-size="14.00">after(1s)</text>
</g>
<!-- LAST_ACK -->
<g id="node12" class="node">
<title>LAST_ACK</title>
<ellipse fill="none" stroke="black" cx="1159.64" cy="-395" rx="55.25" ry="55.25"/>
<text xml:space="preserve" text-anchor="middle" x="1159.64" y="-389.2" font-family="Helvetica,sans-Serif" font-size="14.00">LAST_ACK</text>
</g>
<!-- CLOSE_WAIT&#45;&gt;LAST_ACK -->
<g id="edge24" class="edge">
<title>CLOSE_WAIT&#45;&gt;LAST_ACK</title>
<path fill="none" stroke="black" d="M1012.74,-319.66C1040.14,-333.81 1072.58,-350.56 1099.91,-364.67"/>
<polygon fill="black" stroke="black" points="1098.27,-367.77 1108.76,-369.24 1101.48,-361.55 1098.27,-367.77"/>
<text xml:space="preserve" text-anchor="middle" x="1059.17" y="-357.81" font-family="Times,serif" font-size="14.00">CLOSE</text>
</g>
<!-- LAST_ACK&#45;&gt;CLOSED -->
<g id="edge25" class="edge">
<title>LAST_ACK&#45;&gt;CLOSED</title>
<path fill="none" stroke="black" d="M1104.18,-395C1062.81,-395 1004.5,-395 953.36,-395 322.97,-395 322.97,-395 322.97,-395 222.38,-395 149.09,-285.74 113.26,-217.83"/>
<polygon fill="black" stroke="black" points="116.43,-216.35 108.73,-209.07 110.21,-219.56 116.43,-216.35"/>
<text xml:space="preserve" text-anchor="middle" x="632.24" y="-398.2" font-family="Times,serif" font-size="14.00">ACK</text>
</g>
</g>
</svg>
